<mxfile host="app.diagrams.net" agent="Mozilla/5.0 (Windows NT 10.0; Win64; x64) AppleWebKit/537.36 (KHTML, like Gecko) Chrome/138.0.0.0 Safari/537.36" version="28.0.7">
  <diagram name="Page-1" id="z0dXhfROGHX6b2D9ORsy">
    <mxGraphModel dx="2330" dy="1458" grid="1" gridSize="10" guides="1" tooltips="1" connect="1" arrows="1" fold="1" page="1" pageScale="1" pageWidth="1400" pageHeight="850" math="0" shadow="0">
      <root>
        <mxCell id="0" />
        <mxCell id="1" parent="0" />
        <mxCell id="iD_QBy75V8hiugXB4dN5-5" style="edgeStyle=orthogonalEdgeStyle;rounded=0;orthogonalLoop=1;jettySize=auto;html=1;exitX=0;exitY=0.5;exitDx=0;exitDy=0;endArrow=none;endFill=0;startArrow=classic;startFill=1;strokeWidth=2;" edge="1" parent="1" source="iD_QBy75V8hiugXB4dN5-1">
          <mxGeometry relative="1" as="geometry">
            <mxPoint x="40" y="390.6923076923076" as="targetPoint" />
            <Array as="points">
              <mxPoint x="201" y="390" />
            </Array>
          </mxGeometry>
        </mxCell>
        <mxCell id="iD_QBy75V8hiugXB4dN5-7" style="edgeStyle=orthogonalEdgeStyle;rounded=0;orthogonalLoop=1;jettySize=auto;html=1;exitX=0.5;exitY=0;exitDx=0;exitDy=0;endArrow=none;endFill=0;startArrow=classic;startFill=1;" edge="1" parent="1" source="iD_QBy75V8hiugXB4dN5-1">
          <mxGeometry relative="1" as="geometry">
            <mxPoint x="40" y="160" as="targetPoint" />
            <Array as="points">
              <mxPoint x="570" y="160" />
            </Array>
          </mxGeometry>
        </mxCell>
        <mxCell id="iD_QBy75V8hiugXB4dN5-25" style="edgeStyle=orthogonalEdgeStyle;rounded=0;orthogonalLoop=1;jettySize=auto;html=1;exitX=1;exitY=0.5;exitDx=0;exitDy=0;entryX=0;entryY=0.5;entryDx=0;entryDy=0;strokeWidth=2;" edge="1" parent="1" source="iD_QBy75V8hiugXB4dN5-1" target="iD_QBy75V8hiugXB4dN5-9">
          <mxGeometry relative="1" as="geometry" />
        </mxCell>
        <mxCell id="iD_QBy75V8hiugXB4dN5-1" value="" style="ellipse;whiteSpace=wrap;html=1;aspect=fixed;strokeWidth=2;" vertex="1" parent="1">
          <mxGeometry x="360" y="180" width="420" height="420" as="geometry" />
        </mxCell>
        <mxCell id="iD_QBy75V8hiugXB4dN5-2" value="" style="endArrow=none;html=1;rounded=0;exitX=0.024;exitY=0.4;exitDx=0;exitDy=0;exitPerimeter=0;entryX=0.976;entryY=0.405;entryDx=0;entryDy=0;entryPerimeter=0;strokeWidth=2;" edge="1" parent="1" source="iD_QBy75V8hiugXB4dN5-1" target="iD_QBy75V8hiugXB4dN5-1">
          <mxGeometry width="50" height="50" relative="1" as="geometry">
            <mxPoint x="390" y="348" as="sourcePoint" />
            <mxPoint x="750" y="348" as="targetPoint" />
          </mxGeometry>
        </mxCell>
        <mxCell id="iD_QBy75V8hiugXB4dN5-3" value="&lt;b&gt;&lt;font&gt;3.1&lt;/font&gt;&lt;/b&gt;" style="text;html=1;align=center;verticalAlign=middle;whiteSpace=wrap;rounded=0;fontSize=40;strokeWidth=2;" vertex="1" parent="1">
          <mxGeometry x="540" y="285" width="60" height="30" as="geometry" />
        </mxCell>
        <mxCell id="iD_QBy75V8hiugXB4dN5-4" value="&lt;b&gt;&lt;font&gt;Retrieve Reservation&lt;/font&gt;&lt;/b&gt;" style="text;html=1;align=center;verticalAlign=middle;whiteSpace=wrap;rounded=0;strokeWidth=2;fontSize=40;" vertex="1" parent="1">
          <mxGeometry x="470" y="380" width="200" height="160" as="geometry" />
        </mxCell>
        <mxCell id="iD_QBy75V8hiugXB4dN5-6" value="&lt;font style=&quot;font-size: 30px;&quot;&gt;Chosen Reservation&lt;/font&gt;" style="edgeLabel;html=1;align=center;verticalAlign=middle;resizable=0;points=[];fontSize=40;" vertex="1" connectable="0" parent="1">
          <mxGeometry x="200" y="360" as="geometry" />
        </mxCell>
        <mxCell id="iD_QBy75V8hiugXB4dN5-8" value="&lt;font style=&quot;font-size: 30px;&quot;&gt;Accommodation Details&lt;/font&gt;" style="text;html=1;align=center;verticalAlign=middle;whiteSpace=wrap;rounded=0;" vertex="1" parent="1">
          <mxGeometry x="170" y="120" width="370" height="30" as="geometry" />
        </mxCell>
        <mxCell id="iD_QBy75V8hiugXB4dN5-26" style="edgeStyle=orthogonalEdgeStyle;rounded=0;orthogonalLoop=1;jettySize=auto;html=1;entryX=0;entryY=0.5;entryDx=0;entryDy=0;strokeWidth=2;" edge="1" parent="1" source="iD_QBy75V8hiugXB4dN5-9" target="iD_QBy75V8hiugXB4dN5-13">
          <mxGeometry relative="1" as="geometry" />
        </mxCell>
        <mxCell id="iD_QBy75V8hiugXB4dN5-9" value="" style="ellipse;whiteSpace=wrap;html=1;aspect=fixed;strokeWidth=2;" vertex="1" parent="1">
          <mxGeometry x="1090" y="179" width="420" height="420" as="geometry" />
        </mxCell>
        <mxCell id="iD_QBy75V8hiugXB4dN5-10" value="" style="endArrow=none;html=1;rounded=0;exitX=0.024;exitY=0.4;exitDx=0;exitDy=0;exitPerimeter=0;entryX=0.976;entryY=0.405;entryDx=0;entryDy=0;entryPerimeter=0;strokeWidth=2;" edge="1" parent="1" source="iD_QBy75V8hiugXB4dN5-9" target="iD_QBy75V8hiugXB4dN5-9">
          <mxGeometry width="50" height="50" relative="1" as="geometry">
            <mxPoint x="1120" y="347" as="sourcePoint" />
            <mxPoint x="1480" y="347" as="targetPoint" />
          </mxGeometry>
        </mxCell>
        <mxCell id="iD_QBy75V8hiugXB4dN5-11" value="&lt;b&gt;&lt;font&gt;3.2&lt;/font&gt;&lt;/b&gt;" style="text;html=1;align=center;verticalAlign=middle;whiteSpace=wrap;rounded=0;fontSize=40;strokeWidth=2;" vertex="1" parent="1">
          <mxGeometry x="1270" y="284" width="60" height="30" as="geometry" />
        </mxCell>
        <mxCell id="iD_QBy75V8hiugXB4dN5-12" value="&lt;b&gt;&lt;font&gt;Check Reservation Status&lt;/font&gt;&lt;/b&gt;" style="text;html=1;align=center;verticalAlign=middle;whiteSpace=wrap;rounded=0;strokeWidth=2;fontSize=40;" vertex="1" parent="1">
          <mxGeometry x="1200" y="379" width="200" height="160" as="geometry" />
        </mxCell>
        <mxCell id="iD_QBy75V8hiugXB4dN5-24" style="edgeStyle=orthogonalEdgeStyle;rounded=0;orthogonalLoop=1;jettySize=auto;html=1;exitX=0.5;exitY=1;exitDx=0;exitDy=0;entryX=0;entryY=0.5;entryDx=0;entryDy=0;strokeWidth=2;" edge="1" parent="1" source="iD_QBy75V8hiugXB4dN5-13" target="iD_QBy75V8hiugXB4dN5-22">
          <mxGeometry relative="1" as="geometry" />
        </mxCell>
        <mxCell id="iD_QBy75V8hiugXB4dN5-27" style="edgeStyle=orthogonalEdgeStyle;rounded=0;orthogonalLoop=1;jettySize=auto;html=1;strokeWidth=2;" edge="1" parent="1" source="iD_QBy75V8hiugXB4dN5-13" target="iD_QBy75V8hiugXB4dN5-17">
          <mxGeometry relative="1" as="geometry" />
        </mxCell>
        <mxCell id="iD_QBy75V8hiugXB4dN5-13" value="" style="ellipse;whiteSpace=wrap;html=1;aspect=fixed;strokeWidth=2;" vertex="1" parent="1">
          <mxGeometry x="1880" y="180" width="420" height="420" as="geometry" />
        </mxCell>
        <mxCell id="iD_QBy75V8hiugXB4dN5-14" value="" style="endArrow=none;html=1;rounded=0;exitX=0.024;exitY=0.4;exitDx=0;exitDy=0;exitPerimeter=0;entryX=0.976;entryY=0.405;entryDx=0;entryDy=0;entryPerimeter=0;strokeWidth=2;" edge="1" parent="1" source="iD_QBy75V8hiugXB4dN5-13" target="iD_QBy75V8hiugXB4dN5-13">
          <mxGeometry width="50" height="50" relative="1" as="geometry">
            <mxPoint x="1910" y="348" as="sourcePoint" />
            <mxPoint x="2270" y="348" as="targetPoint" />
          </mxGeometry>
        </mxCell>
        <mxCell id="iD_QBy75V8hiugXB4dN5-15" value="&lt;b&gt;&lt;font&gt;3.3&lt;/font&gt;&lt;/b&gt;" style="text;html=1;align=center;verticalAlign=middle;whiteSpace=wrap;rounded=0;fontSize=40;strokeWidth=2;" vertex="1" parent="1">
          <mxGeometry x="2060" y="285" width="60" height="30" as="geometry" />
        </mxCell>
        <mxCell id="iD_QBy75V8hiugXB4dN5-16" value="&lt;b&gt;&lt;font&gt;Confirm Reservation&lt;/font&gt;&lt;/b&gt;" style="text;html=1;align=center;verticalAlign=middle;whiteSpace=wrap;rounded=0;strokeWidth=2;fontSize=40;" vertex="1" parent="1">
          <mxGeometry x="1990" y="380" width="200" height="160" as="geometry" />
        </mxCell>
        <mxCell id="iD_QBy75V8hiugXB4dN5-32" style="edgeStyle=orthogonalEdgeStyle;rounded=0;orthogonalLoop=1;jettySize=auto;html=1;strokeWidth=2;" edge="1" parent="1" source="iD_QBy75V8hiugXB4dN5-17">
          <mxGeometry relative="1" as="geometry">
            <mxPoint x="3590" y="390" as="targetPoint" />
          </mxGeometry>
        </mxCell>
        <mxCell id="iD_QBy75V8hiugXB4dN5-17" value="" style="ellipse;whiteSpace=wrap;html=1;aspect=fixed;strokeWidth=2;" vertex="1" parent="1">
          <mxGeometry x="2690" y="180" width="420" height="420" as="geometry" />
        </mxCell>
        <mxCell id="iD_QBy75V8hiugXB4dN5-18" value="" style="endArrow=none;html=1;rounded=0;exitX=0.024;exitY=0.4;exitDx=0;exitDy=0;exitPerimeter=0;entryX=0.976;entryY=0.405;entryDx=0;entryDy=0;entryPerimeter=0;strokeWidth=2;" edge="1" parent="1" source="iD_QBy75V8hiugXB4dN5-17" target="iD_QBy75V8hiugXB4dN5-17">
          <mxGeometry width="50" height="50" relative="1" as="geometry">
            <mxPoint x="2720" y="348" as="sourcePoint" />
            <mxPoint x="3080" y="348" as="targetPoint" />
          </mxGeometry>
        </mxCell>
        <mxCell id="iD_QBy75V8hiugXB4dN5-19" value="&lt;b&gt;&lt;font&gt;3.4&lt;/font&gt;&lt;/b&gt;" style="text;html=1;align=center;verticalAlign=middle;whiteSpace=wrap;rounded=0;fontSize=40;strokeWidth=2;" vertex="1" parent="1">
          <mxGeometry x="2870" y="285" width="60" height="30" as="geometry" />
        </mxCell>
        <mxCell id="iD_QBy75V8hiugXB4dN5-20" value="&lt;b&gt;&lt;font&gt;Update Reservation Status&lt;/font&gt;&lt;/b&gt;" style="text;html=1;align=center;verticalAlign=middle;whiteSpace=wrap;rounded=0;strokeWidth=2;fontSize=40;" vertex="1" parent="1">
          <mxGeometry x="2800" y="380" width="200" height="160" as="geometry" />
        </mxCell>
        <mxCell id="iD_QBy75V8hiugXB4dN5-21" value="&lt;font&gt;3.3&lt;/font&gt;" style="shape=partialRectangle;whiteSpace=wrap;html=1;top=0;bottom=0;fillColor=none;fontStyle=1;strokeWidth=2;fontSize=30;" vertex="1" parent="1">
          <mxGeometry x="1908" y="721.75" width="70" height="60" as="geometry" />
        </mxCell>
        <mxCell id="iD_QBy75V8hiugXB4dN5-22" value="" style="shape=partialRectangle;whiteSpace=wrap;html=1;top=0;bottom=0;fillColor=none;rotation=90;fontStyle=1;strokeWidth=2;fontSize=30;" vertex="1" parent="1">
          <mxGeometry x="2060.75" y="570" width="60" height="363.5" as="geometry" />
        </mxCell>
        <mxCell id="iD_QBy75V8hiugXB4dN5-23" value="&lt;font&gt;Booking Summary&lt;/font&gt;" style="text;html=1;align=center;verticalAlign=middle;whiteSpace=wrap;rounded=0;strokeWidth=2;fontSize=30;" vertex="1" parent="1">
          <mxGeometry x="1988.5" y="736.75" width="274.5" height="30" as="geometry" />
        </mxCell>
        <mxCell id="iD_QBy75V8hiugXB4dN5-28" value="&lt;span style=&quot;font-size: 30px;&quot;&gt;Booking Details&lt;/span&gt;" style="text;html=1;align=center;verticalAlign=middle;whiteSpace=wrap;rounded=0;" vertex="1" parent="1">
          <mxGeometry x="790" y="350" width="300" height="30" as="geometry" />
        </mxCell>
        <mxCell id="iD_QBy75V8hiugXB4dN5-30" style="edgeStyle=orthogonalEdgeStyle;rounded=0;orthogonalLoop=1;jettySize=auto;html=1;exitX=0.5;exitY=0;exitDx=0;exitDy=0;entryX=1;entryY=1;entryDx=0;entryDy=0;startArrow=classic;startFill=1;endArrow=none;endFill=0;" edge="1" parent="1" source="iD_QBy75V8hiugXB4dN5-29" target="iD_QBy75V8hiugXB4dN5-13">
          <mxGeometry relative="1" as="geometry">
            <Array as="points">
              <mxPoint x="2330" y="538" />
            </Array>
          </mxGeometry>
        </mxCell>
        <mxCell id="iD_QBy75V8hiugXB4dN5-29" value="&lt;font style=&quot;font-size: 30px;&quot;&gt;Booking Details&lt;/font&gt;" style="text;html=1;align=center;verticalAlign=middle;whiteSpace=wrap;rounded=0;" vertex="1" parent="1">
          <mxGeometry x="2180" y="873.5" width="300" height="30" as="geometry" />
        </mxCell>
        <mxCell id="iD_QBy75V8hiugXB4dN5-31" value="&lt;span style=&quot;font-size: 30px;&quot;&gt;Reservation Status&lt;/span&gt;" style="text;html=1;align=center;verticalAlign=middle;whiteSpace=wrap;rounded=0;" vertex="1" parent="1">
          <mxGeometry x="1550" y="349" width="300" height="30" as="geometry" />
        </mxCell>
        <mxCell id="iD_QBy75V8hiugXB4dN5-33" value="&lt;span style=&quot;font-size: 30px;&quot;&gt;Reservation Confirmation&lt;/span&gt;" style="text;html=1;align=center;verticalAlign=middle;whiteSpace=wrap;rounded=0;" vertex="1" parent="1">
          <mxGeometry x="3170" y="349" width="370" height="30" as="geometry" />
        </mxCell>
        <mxCell id="iD_QBy75V8hiugXB4dN5-34" value="&lt;span style=&quot;font-size: 30px;&quot;&gt;Confirmed Reservation Status&lt;/span&gt;" style="text;html=1;align=center;verticalAlign=middle;whiteSpace=wrap;rounded=0;" vertex="1" parent="1">
          <mxGeometry x="2350" y="330" width="300" height="30" as="geometry" />
        </mxCell>
        <mxCell id="iD_QBy75V8hiugXB4dN5-35" value="&lt;span style=&quot;font-size: 30px;&quot;&gt;Confirmed Reservation&lt;/span&gt;" style="text;html=1;align=center;verticalAlign=middle;whiteSpace=wrap;rounded=0;" vertex="1" parent="1">
          <mxGeometry x="1740" y="650" width="360" height="30" as="geometry" />
        </mxCell>
      </root>
    </mxGraphModel>
  </diagram>
</mxfile>
